Coordinates
version=1
nRows=9
nColumns=63
inDegrees=yes

Units are S.I. units (second, meters, Newtons, ...)
If the header above contains a line with 'inDegrees', this indicates whether rotational values are in degrees (yes) or radians (no).

endheader
time	pelvis_tilt	pelvis_list	pelvis_rotation	pelvis_tx	pelvis_ty	pelvis_tz	hip_flexion_r	hip_adduction_r	hip_rotation_r	knee_angle_r	knee_angle_r_beta	ankle_angle_r	subtalar_angle_r	mtp_angle_r	hip_flexion_l	hip_adduction_l	hip_rotation_l	knee_angle_l	knee_angle_l_beta	ankle_angle_l	subtalar_angle_l	mtp_angle_l	L5_S1_Flex_Ext	L5_S1_Lat_Bending	L5_S1_axial_rotation	L4_L5_Flex_Ext	L4_L5_Lat_Bending	L4_L5_axial_rotation	L3_L4_Flex_Ext	L3_L4_Lat_Bending	L3_L4_axial_rotation	L2_L3_Flex_Ext	L2_L3_Lat_Bending	L2_L3_axial_rotation	L1_L2_Flex_Ext	L1_L2_Lat_Bending	L1_L2_axial_rotation	L1_T12_Flex_Ext	L1_T12_Lat_Bending	L1_T12_axial_rotation	Abs_r3	Abs_r2	Abs_r1	Abs_t1	Abs_t2	neck_flexion	neck_bending	neck_rotation	arm_flex_r	arm_add_r	arm_rot_r	elbow_flex_r	pro_sup_r	wrist_flex_r	wrist_dev_r	arm_flex_l	arm_add_l	arm_rot_l	elbow_flex_l	pro_sup_l	wrist_flex_l	wrist_dev_l
      2.71111111	     -5.27305507	     -5.85188466	    107.04052083	      0.27014667	      0.75661785	      0.84612631	      2.31412079	     -1.06242519	    -27.34245184	      9.12851215	      0.15932259	     20.89021986	      5.97468531	      0.00000000	      5.31096910	      1.04275398	      5.84323874	      7.29953139	      0.12740086	     23.94510387	     13.04238999	      0.00000000	     -0.06876742	     -0.45997261	      0.68793351	     -0.12770798	     -0.61176357	      0.73092936	     -0.11297800	     -1.11837740	      0.73092936	     -0.07859429	     -1.11837740	      0.60194182	     -0.06385743	     -0.93797614	      0.55894598	     -0.03929371	     -0.71249757	      0.51595013	     -0.49119882	     -5.20330214	      3.82607982	      0.00000000	      0.00000000	    -11.61010551	      0.45907608	      6.90790418	     69.50210706	    -41.19461714	     12.93768046	     73.00943800	     85.74581196	     -7.00986221	     -5.83437939	     34.40584850	    -39.22490564	    -18.61371141	     93.99262779	     83.59637000	     -5.91817679	     12.13809456
      2.73333333	     -5.43577972	     -5.61623678	    107.09985238	      0.27019515	      0.75692982	      0.84614955	      2.05864824	     -1.19703029	    -27.64622223	      9.28011174	      0.16196850	     20.57218287	      5.91681644	      0.00000000	      5.04006926	      1.12724792	      5.86501514	      7.30990686	      0.12758194	     24.01332314	     13.07337760	      0.00000000	     -0.04097191	     -0.46169427	      0.66078409	     -0.07608893	     -0.61405338	      0.70208309	     -0.06731275	     -1.12256344	      0.70208309	     -0.04682679	     -1.12256344	      0.57818608	     -0.03804651	     -0.94148695	      0.53688707	     -0.02341135	     -0.71516442	      0.49558807	     -0.29265824	     -5.22277789	      3.67508286	      0.00000000	      0.00000000	    -13.65566318	      0.51554883	      7.77936112	     70.29033082	    -40.10978364	     14.16605024	     71.73049730	     85.88209937	     -6.75999440	     -5.52676926	     35.52116880	    -39.53672620	    -17.68106706	     92.73263668	     84.42828630	     -5.74114192	     11.92858592
      2.75555556	     -5.42653267	     -5.28338860	    107.22380220	      0.26944490	      0.75741440	      0.84669100	      1.73246242	     -1.16736311	    -28.02385950	      9.32051215	      0.16267363	     20.09537100	      6.00919348	      0.00000000	      4.78144102	      1.06124126	      5.60374516	      7.34938379	      0.12827095	     24.30830358	     13.41836666	      0.00000000	     -0.04514586	     -0.41223584	      0.52470754	     -0.08384038	     -0.54827367	      0.55750176	     -0.07417014	     -1.00231023	      0.55750176	     -0.05159721	     -1.00231023	      0.45911910	     -0.04192245	     -0.84063133	      0.42632487	     -0.02579635	     -0.63855332	      0.39353065	     -0.32247238	     -4.66329429	      2.91826592	      0.00000000	      0.00000000	    -15.05179933	     -0.22378879	     10.12756973	     72.05778695	    -38.66634541	     16.56238604	     70.21370484	     86.16670326	     -6.20736232	     -5.23865822	     35.62928733	    -39.85482125	    -18.26088013	     91.67311577	     86.64604011	     -5.40203241	      9.67462677
      2.77777778	     -5.50257509	     -5.21244756	    107.20052623	      0.26940025	      0.75773528	      0.84663656	      1.64492378	     -1.24792378	    -28.04548103	      9.31419260	      0.16256333	     19.73934636	      5.98530290	      0.00000000	      4.71206577	      1.12202947	      5.39722968	      7.33689201	      0.12805292	     24.33219567	     13.42567011	      0.00000000	     -0.01465134	     -0.41454702	      0.50108613	     -0.02720901	     -0.55134753	      0.53240401	     -0.02407069	     -1.00792961	      0.53240401	     -0.01674502	     -1.00792961	      0.43845036	     -0.01360524	     -0.84534427	      0.40713248	     -0.00837178	     -0.64213333	      0.37581459	     -0.10465308	     -4.68943875	      2.78689070	      0.00000000	      0.00000000	    -16.26009810	     -0.59938446	     10.35132195	     72.57582327	    -37.74195240	     17.59874608	     69.46146383	     86.33594786	     -5.98245707	     -4.53142437	     36.57957417	    -40.02264936	    -17.88631568	     91.03060067	     86.83807943	     -5.22081928	      9.74870916
      2.80000000	     -5.49014974	     -4.93596363	    107.14293224	      0.26908145	      0.75822285	      0.84690112	      1.41655133	     -1.17598648	    -27.71497013	      9.32117594	      0.16268521	     19.58453419	      5.61042853	      0.00000000	      4.45855166	      1.03163851	      4.83705724	      7.30222586	      0.12744788	     24.43856251	     13.85496423	      0.00000000	     -0.04155561	     -0.38322194	      0.46309451	     -0.07717292	     -0.50968518	      0.49203792	     -0.06827171	     -0.93176583	      0.49203792	     -0.04749391	     -0.93176583	      0.40520770	     -0.03858854	     -0.78146619	      0.37626429	     -0.02374488	     -0.59361079	      0.34732088	     -0.29682757	     -4.33508326	      2.57559274	      0.00000000	      0.00000000	    -16.62593434	     -1.35050191	     10.98351626	     73.74205946	    -37.05315029	     19.28550922	     68.98674821	     86.46727105	     -5.24360414	     -2.82619669	     37.23422668	    -40.33493445	    -18.04062019	     90.64921290	     87.19503358	     -4.47482154	      9.73466538
      2.82222222	     -5.39651569	     -4.93876034	    107.17838534	      0.26888113	      0.75846667	      0.84694236	      1.47929488	     -1.10703408	    -27.61548383	      9.33938311	      0.16300299	     19.44204580	      5.51425733	      0.00000000	      4.48239643	      0.95222067	      4.60131345	      7.21684133	      0.12595764	     24.39553330	     13.88718286	      0.00000000	     -0.01583649	     -0.36747972	      0.44739997	     -0.02940995	     -0.48874803	      0.47536246	     -0.02601777	     -0.89349020	      0.47536246	     -0.01809952	     -0.89349020	      0.39147497	     -0.01470576	     -0.74936465	      0.36351247	     -0.00904897	     -0.56922609	      0.33554997	     -0.11311847	     -4.15700411	      2.48830439	      0.00000000	      0.00000000	    -17.08785958	     -1.51092188	     10.84374051	     74.11546319	    -36.29002597	     19.95916682	     68.46289988	     86.45565324	     -5.04630408	     -2.32084637	     38.03926219	    -40.68139795	    -17.68092216	     90.38963244	     87.29468653	     -4.21769132	      9.99716488
      2.84444444	     -5.37599125	     -4.79088788	    107.22897564	      0.26858184	      0.75874900	      0.84695972	      1.41272110	     -1.07313286	    -27.42108765	      9.51315384	      0.16603586	     19.33831261	      5.00609908	      0.00000000	      4.33550932	      0.89335472	      4.31166903	      7.16893068	      0.12512144	     24.42518307	     14.23479533	      0.00000000	     -0.03450304	     -0.35655173	      0.43386501	     -0.06407559	     -0.47421380	      0.46098157	     -0.05668504	     -0.86691988	      0.46098157	     -0.03943352	     -0.86691988	      0.37963188	     -0.03203952	     -0.72708029	      0.35251532	     -0.01971504	     -0.55229863	      0.32539876	     -0.24645175	     -4.03338450	      2.41302703	      0.00000000	      0.00000000	    -17.21835945	     -1.63670934	     10.20762039	     74.78695238	    -36.03934355	     21.06676478	     68.08751118	     86.35297269	     -4.53112057	     -1.64168531	     38.77696676	    -41.56774114	    -17.07815068	     90.45699024	     87.29378788	     -3.45133147	     10.75138888
      2.86666667	     -5.23810916	     -4.85091477	    107.31302848	      0.26844602	      0.75875034	      0.84709177	      1.57279175	     -0.98369616	    -27.37351320	      9.67847150	      0.16892119	     18.99349722	      4.92135662	      0.00000000	      4.39451803	      0.78443998	      4.20444747	      7.02707944	      0.12264567	     24.37306203	     14.29374207	      0.00000000	     -0.03741208	     -0.34175939	      0.41778499	     -0.06947798	     -0.45453999	      0.44389655	     -0.06146431	     -0.83095377	      0.44389655	     -0.04275827	     -0.83095377	      0.36556187	     -0.03474086	     -0.69691574	      0.33945031	     -0.02137726	     -0.52938529	      0.31333874	     -0.26723076	     -3.86605054	      2.32359479	      0.00000000	      0.00000000	    -17.08305951	     -1.46662543	      9.80794911	     75.03153898	    -35.71172333	     21.32066973	     68.04448436	     86.30575617	     -4.48303580	     -1.55142836	     39.36064340	    -41.99814448	    -16.93187225	     90.69329876	     87.18044864	     -3.20874071	     10.92235301
      2.88888889	     -5.21805952	     -4.91455179	    107.56276138	      0.26860236	      0.75852785	      0.84741355	      1.76557501	     -0.92499070	    -26.63927515	      9.93818841	      0.17345411	     18.61343398	      3.26188563	      0.00000000	      4.46940101	      0.75278693	      3.94265534	      6.93528971	      0.12104364	     24.40868821	     15.04486871	      0.00000000	     -0.07678180	     -0.36461743	      0.40537626	     -0.14259148	     -0.48494119	      0.43071228	     -0.12614482	     -0.88653083	      0.43071228	     -0.08775392	     -0.88653083	      0.35470423	     -0.07129958	     -0.74352787	      0.32936821	     -0.04387312	     -0.56479240	      0.30403220	     -0.54844472	     -4.12462533	      2.25458117	      0.00000000	      0.00000000	    -16.34079286	     -0.65565106	      7.55649890	     75.01412859	    -35.98837002	     21.34434345	     68.42476759	     85.64773321	     -4.80680456	     -1.61882351	     40.65327623	    -42.80801266	    -16.19983488	     91.15891626	     85.96119744	     -1.45016623	     12.95094297
